<?xml version="1.0" encoding="utf-8"?>
<!-- Generator: Adobe Illustrator 28.0.0, SVG Export Plug-In . SVG Version: 6.00 Build 0)  -->
<svg version="1.1" id="Layer_1" xmlns="http://www.w3.org/2000/svg" xmlns:xlink="http://www.w3.org/1999/xlink" x="0px" y="0px"
	 viewBox="0 0 330 330" style="enable-background:new 0 0 330 330;" xml:space="preserve">
<style type="text/css">
	.st0{opacity:0.65;}
	.st1{fill:#12F9FF;}
	.st2{opacity:0.19;}
	.st3{clip-path:url(#SVGID_00000085231894422939181240000014794924732583207571_);fill:#47F4DF;}
	.st4{clip-path:url(#SVGID_00000085231894422939181240000014794924732583207571_);fill:#46F4DE;}
	.st5{clip-path:url(#SVGID_00000085231894422939181240000014794924732583207571_);fill:#45F4DD;}
	.st6{clip-path:url(#SVGID_00000085231894422939181240000014794924732583207571_);fill:#45F4DC;}
	.st7{clip-path:url(#SVGID_00000085231894422939181240000014794924732583207571_);fill:#44F5DB;}
	.st8{clip-path:url(#SVGID_00000085231894422939181240000014794924732583207571_);fill:#43F5DA;}
	.st9{clip-path:url(#SVGID_00000085231894422939181240000014794924732583207571_);fill:#42F5D9;}
	.st10{clip-path:url(#SVGID_00000085231894422939181240000014794924732583207571_);fill:#41F5D8;}
	.st11{clip-path:url(#SVGID_00000085231894422939181240000014794924732583207571_);fill:#40F5D7;}
	.st12{clip-path:url(#SVGID_00000085231894422939181240000014794924732583207571_);fill:#40F5D6;}
	.st13{clip-path:url(#SVGID_00000085231894422939181240000014794924732583207571_);fill:#3FF5D5;}
	.st14{clip-path:url(#SVGID_00000085231894422939181240000014794924732583207571_);fill:#3EF5D4;}
	.st15{clip-path:url(#SVGID_00000085231894422939181240000014794924732583207571_);fill:#3DF6D3;}
	.st16{clip-path:url(#SVGID_00000085231894422939181240000014794924732583207571_);fill:#3CF6D2;}
	.st17{clip-path:url(#SVGID_00000085231894422939181240000014794924732583207571_);fill:#3CF6D1;}
	.st18{clip-path:url(#SVGID_00000085231894422939181240000014794924732583207571_);fill:#3BF6D0;}
	.st19{clip-path:url(#SVGID_00000085231894422939181240000014794924732583207571_);fill:#3AF6CF;}
	.st20{clip-path:url(#SVGID_00000085231894422939181240000014794924732583207571_);fill:#39F6CE;}
	.st21{clip-path:url(#SVGID_00000085231894422939181240000014794924732583207571_);fill:#38F6CD;}
	.st22{clip-path:url(#SVGID_00000085231894422939181240000014794924732583207571_);fill:#37F6CC;}
	.st23{clip-path:url(#SVGID_00000085231894422939181240000014794924732583207571_);fill:#37F7CB;}
	.st24{clip-path:url(#SVGID_00000085231894422939181240000014794924732583207571_);fill:#36F7CA;}
	.st25{clip-path:url(#SVGID_00000085231894422939181240000014794924732583207571_);fill:#35F7C9;}
	.st26{clip-path:url(#SVGID_00000085231894422939181240000014794924732583207571_);fill:#34F7C8;}
	.st27{clip-path:url(#SVGID_00000085231894422939181240000014794924732583207571_);fill:#33F7C7;}
	.st28{clip-path:url(#SVGID_00000085231894422939181240000014794924732583207571_);fill:#33F7C6;}
	.st29{clip-path:url(#SVGID_00000085231894422939181240000014794924732583207571_);fill:#32F7C5;}
	.st30{clip-path:url(#SVGID_00000085231894422939181240000014794924732583207571_);fill:#31F7C4;}
	.st31{clip-path:url(#SVGID_00000085231894422939181240000014794924732583207571_);fill:#30F8C2;}
	.st32{clip-path:url(#SVGID_00000085231894422939181240000014794924732583207571_);fill:#2FF8C1;}
	.st33{clip-path:url(#SVGID_00000085231894422939181240000014794924732583207571_);fill:#2EF8C0;}
	.st34{clip-path:url(#SVGID_00000085231894422939181240000014794924732583207571_);fill:#2EF8BF;}
	.st35{clip-path:url(#SVGID_00000085231894422939181240000014794924732583207571_);fill:#2DF8BE;}
	.st36{clip-path:url(#SVGID_00000085231894422939181240000014794924732583207571_);fill:#2CF8BD;}
	.st37{clip-path:url(#SVGID_00000085231894422939181240000014794924732583207571_);fill:#2BF8BC;}
	.st38{clip-path:url(#SVGID_00000085231894422939181240000014794924732583207571_);fill:#2AF8BB;}
	.st39{clip-path:url(#SVGID_00000085231894422939181240000014794924732583207571_);fill:#2AF9BA;}
	.st40{clip-path:url(#SVGID_00000085231894422939181240000014794924732583207571_);fill:#29F9B9;}
	.st41{clip-path:url(#SVGID_00000085231894422939181240000014794924732583207571_);fill:#28F9B8;}
	.st42{clip-path:url(#SVGID_00000085231894422939181240000014794924732583207571_);fill:#27F9B7;}
	.st43{clip-path:url(#SVGID_00000085231894422939181240000014794924732583207571_);fill:#26F9B6;}
	.st44{clip-path:url(#SVGID_00000085231894422939181240000014794924732583207571_);fill:#25F9B5;}
	.st45{clip-path:url(#SVGID_00000085231894422939181240000014794924732583207571_);fill:#25F9B4;}
	.st46{clip-path:url(#SVGID_00000085231894422939181240000014794924732583207571_);fill:#24F9B3;}
	.st47{clip-path:url(#SVGID_00000085231894422939181240000014794924732583207571_);fill:#23FAB2;}
	.st48{clip-path:url(#SVGID_00000085231894422939181240000014794924732583207571_);fill:#22FAB1;}
	.st49{clip-path:url(#SVGID_00000085231894422939181240000014794924732583207571_);fill:#21FAB0;}
	.st50{clip-path:url(#SVGID_00000085231894422939181240000014794924732583207571_);fill:#21FAAF;}
	.st51{clip-path:url(#SVGID_00000085231894422939181240000014794924732583207571_);fill:#20FAAE;}
	.st52{clip-path:url(#SVGID_00000085231894422939181240000014794924732583207571_);fill:#1FFAAD;}
	.st53{clip-path:url(#SVGID_00000085231894422939181240000014794924732583207571_);fill:#1EFAAC;}
	.st54{clip-path:url(#SVGID_00000085231894422939181240000014794924732583207571_);fill:#1DFAAB;}
	.st55{clip-path:url(#SVGID_00000085231894422939181240000014794924732583207571_);fill:#1CFBAA;}
	.st56{clip-path:url(#SVGID_00000085231894422939181240000014794924732583207571_);fill:#1CFBA9;}
	.st57{clip-path:url(#SVGID_00000085231894422939181240000014794924732583207571_);fill:#1BFBA8;}
	.st58{clip-path:url(#SVGID_00000085231894422939181240000014794924732583207571_);fill:#1AFBA7;}
	.st59{clip-path:url(#SVGID_00000084503298480461398420000003157464173245760952_);fill:#35F7C9;}
	.st60{clip-path:url(#SVGID_00000084503298480461398420000003157464173245760952_);fill:#34F7C8;}
	.st61{clip-path:url(#SVGID_00000084503298480461398420000003157464173245760952_);fill:#33F7C7;}
	.st62{clip-path:url(#SVGID_00000084503298480461398420000003157464173245760952_);fill:#33F7C6;}
	.st63{clip-path:url(#SVGID_00000084503298480461398420000003157464173245760952_);fill:#32F7C5;}
	.st64{clip-path:url(#SVGID_00000084503298480461398420000003157464173245760952_);fill:#31F7C4;}
	.st65{clip-path:url(#SVGID_00000084503298480461398420000003157464173245760952_);fill:#30F8C2;}
	.st66{clip-path:url(#SVGID_00000084503298480461398420000003157464173245760952_);fill:#2FF8C1;}
	.st67{clip-path:url(#SVGID_00000084503298480461398420000003157464173245760952_);fill:#2EF8C0;}
	.st68{clip-path:url(#SVGID_00000084503298480461398420000003157464173245760952_);fill:#2EF8BF;}
	.st69{clip-path:url(#SVGID_00000084503298480461398420000003157464173245760952_);fill:#2DF8BE;}
	.st70{clip-path:url(#SVGID_00000084503298480461398420000003157464173245760952_);fill:#2CF8BD;}
	.st71{fill:#FFFFFF;}
</style>
<g>
	<rect width="330" height="330"/>
</g>
<g class="st0">
	<g>
		<polygon class="st1" points="285.7,51.5 283.1,51.5 283.1,48.6 280.2,48.6 280.2,46 285.7,46 		"/>
	</g>
	<g>
		<path class="st1" d="M285.7,272.2h-2.6v-8.5h2.6V272.2z M285.7,255.3h-2.6v-8.5h2.6V255.3z M285.7,238.3h-2.6v-8.5h2.6V238.3z
			 M285.7,221.3h-2.6v-8.5h2.6V221.3z M285.7,204.3h-2.6v-8.5h2.6V204.3z M285.7,187.3h-2.6v-8.5h2.6V187.3z M285.7,170.4h-2.6v-8.5
			h2.6V170.4z M285.7,153.4h-2.6v-8.5h2.6V153.4z M285.7,136.4h-2.6v-8.5h2.6V136.4z M285.7,119.4h-2.6v-8.5h2.6V119.4z
			 M285.7,102.4h-2.6v-8.5h2.6V102.4z M285.7,85.4h-2.6V77h2.6V85.4z M285.7,68.5h-2.6V60h2.6V68.5z"/>
	</g>
	<g>
		<polygon class="st1" points="283.9,286.2 279.7,286.2 279.7,283.6 283.1,283.6 283.1,280.7 285.7,280.7 285.7,286.2 		"/>
	</g>
	<g>
		<path class="st1" d="M271.3,286.2h-8.5v-2.6h8.5V286.2z M254.3,286.2h-8.5v-2.6h8.5V286.2z M237.4,286.2H229v-2.6h8.5V286.2z
			 M220.5,286.2h-8.5v-2.6h8.5V286.2z M203.6,286.2h-8.5v-2.6h8.5V286.2z M186.7,286.2h-8.5v-2.6h8.5V286.2z M169.8,286.2h-8.5v-2.6
			h8.5V286.2z M152.9,286.2h-8.5v-2.6h8.5V286.2z M136,286.2h-8.5v-2.6h8.5V286.2z M119.1,286.2h-8.5v-2.6h8.5V286.2z M102.2,286.2
			h-8.5v-2.6h8.5V286.2z M85.3,286.2h-8.5v-2.6h8.5V286.2z M68.4,286.2H60v-2.6h8.5V286.2z"/>
	</g>
	<g>
		<polygon class="st1" points="51.5,286.2 45.5,286.2 45.5,280.7 48.1,280.7 48.1,283.6 51.5,283.6 		"/>
	</g>
	<g>
		<path class="st1" d="M48.1,272.2h-2.6v-8.5h2.6V272.2z M48.1,255.3h-2.6v-8.5h2.6V255.3z M48.1,238.3h-2.6v-8.5h2.6V238.3z
			 M48.1,221.3h-2.6v-8.5h2.6V221.3z M48.1,204.3h-2.6v-8.5h2.6V204.3z M48.1,187.3h-2.6v-8.5h2.6V187.3z M48.1,170.4h-2.6v-8.5h2.6
			V170.4z M48.1,153.4h-2.6v-8.5h2.6V153.4z M48.1,136.4h-2.6v-8.5h2.6V136.4z M48.1,119.4h-2.6v-8.5h2.6V119.4z M48.1,102.4h-2.6
			v-8.5h2.6V102.4z M48.1,85.4h-2.6V77h2.6V85.4z M48.1,68.5h-2.6V60h2.6V68.5z"/>
	</g>
	<g>
		<polygon class="st1" points="48.1,51.5 45.5,51.5 45.5,46 51,46 51,48.6 48.1,48.6 		"/>
	</g>
	<g>
		<path class="st1" d="M271.7,48.6h-8.5V46h8.5V48.6z M254.8,48.6h-8.5V46h8.5V48.6z M237.8,48.6h-8.5V46h8.5V48.6z M220.8,48.6
			h-8.5V46h8.5V48.6z M203.8,48.6h-8.5V46h8.5V48.6z M186.8,48.6h-8.5V46h8.5V48.6z M169.8,48.6h-8.5V46h8.5V48.6z M152.9,48.6h-8.5
			V46h8.5V48.6z M135.9,48.6h-8.5V46h8.5V48.6z M118.9,48.6h-8.5V46h8.5V48.6z M101.9,48.6h-8.5V46h8.5V48.6z M84.9,48.6h-8.5V46
			h8.5V48.6z M68,48.6h-8.5V46H68V48.6z"/>
	</g>
</g>
<g class="st2">
	<polygon class="st1" points="284.4,47.3 284.4,284.9 283.9,284.9 283.9,284.9 47.3,284.9 47.3,284.9 46.8,284.9 46.8,47.3 	"/>
</g>
<g>
	<g>
		<g>
			<defs>
				<polygon id="SVGID_1_" points="122.2,165.9 130.8,140.9 135.4,154.3 135.5,154.4 147.5,189.3 176.8,189.3 147.6,107.8 
					114.3,107.8 63,250.6 93,250.6 99.6,231.6 99.9,230.8 102.1,224.2 110.3,200.6 110.2,200.6 				"/>
			</defs>
			<clipPath id="SVGID_00000183216152814450847110000008510067009196667797_">
				<use xlink:href="#SVGID_1_"  style="overflow:visible;"/>
			</clipPath>
			<polygon style="clip-path:url(#SVGID_00000183216152814450847110000008510067009196667797_);fill:#47F4DF;" points="63,247 
				66.5,250.6 63,250.6 			"/>
			<polygon style="clip-path:url(#SVGID_00000183216152814450847110000008510067009196667797_);fill:#47F4DF;" points="63,242.4 
				70.8,250.6 66.5,250.6 63,247 			"/>
			<polygon style="clip-path:url(#SVGID_00000183216152814450847110000008510067009196667797_);fill:#46F4DE;" points="63,237.8 
				75.2,250.6 70.8,250.6 63,242.4 			"/>
			<polygon style="clip-path:url(#SVGID_00000183216152814450847110000008510067009196667797_);fill:#45F4DD;" points="63,233.2 
				79.6,250.6 75.2,250.6 63,237.8 			"/>
			<polygon style="clip-path:url(#SVGID_00000183216152814450847110000008510067009196667797_);fill:#45F4DC;" points="63,228.6 
				84,250.6 79.6,250.6 63,233.2 			"/>
			<polygon style="clip-path:url(#SVGID_00000183216152814450847110000008510067009196667797_);fill:#44F5DB;" points="63,224 
				88.3,250.6 84,250.6 63,228.6 			"/>
			<polygon style="clip-path:url(#SVGID_00000183216152814450847110000008510067009196667797_);fill:#43F5DA;" points="63,219.4 
				92.7,250.6 88.3,250.6 63,224 			"/>
			<polygon style="clip-path:url(#SVGID_00000183216152814450847110000008510067009196667797_);fill:#42F5D9;" points="63,214.9 
				97.1,250.6 92.7,250.6 63,219.4 			"/>
			<polygon style="clip-path:url(#SVGID_00000183216152814450847110000008510067009196667797_);fill:#41F5D8;" points="63,210.3 
				101.5,250.6 97.1,250.6 63,214.9 			"/>
			<polygon style="clip-path:url(#SVGID_00000183216152814450847110000008510067009196667797_);fill:#40F5D7;" points="63,205.7 
				105.8,250.6 101.5,250.6 63,210.3 			"/>
			<polygon style="clip-path:url(#SVGID_00000183216152814450847110000008510067009196667797_);fill:#40F5D6;" points="63,201.1 
				110.2,250.6 105.8,250.6 63,205.7 			"/>
			<polygon style="clip-path:url(#SVGID_00000183216152814450847110000008510067009196667797_);fill:#3FF5D5;" points="63,196.5 
				114.3,250.3 114,250.6 110.2,250.6 63,201.1 			"/>
			<polygon style="clip-path:url(#SVGID_00000183216152814450847110000008510067009196667797_);fill:#3EF5D4;" points="63,191.9 
				116.6,248.1 114.3,250.3 63,196.5 			"/>
			<polygon style="clip-path:url(#SVGID_00000183216152814450847110000008510067009196667797_);fill:#3DF6D3;" points="63,187.3 
				118.9,245.9 116.6,248.1 63,191.9 			"/>
			<polygon style="clip-path:url(#SVGID_00000183216152814450847110000008510067009196667797_);fill:#3CF6D2;" points="63,182.8 
				121.2,243.8 118.9,245.9 63,187.3 			"/>
			<polygon style="clip-path:url(#SVGID_00000183216152814450847110000008510067009196667797_);fill:#3CF6D1;" points="63,178.2 
				123.5,241.6 121.2,243.8 63,182.8 			"/>
			<polygon style="clip-path:url(#SVGID_00000183216152814450847110000008510067009196667797_);fill:#3BF6D0;" points="63,173.6 
				125.8,239.4 123.5,241.6 63,178.2 			"/>
			<polygon style="clip-path:url(#SVGID_00000183216152814450847110000008510067009196667797_);fill:#3AF6CF;" points="63,169 
				128,237.2 125.8,239.4 63,173.6 			"/>
			<polygon style="clip-path:url(#SVGID_00000183216152814450847110000008510067009196667797_);fill:#39F6CE;" points="63,164.4 
				130.3,235 128,237.2 63,169 			"/>
			<polygon style="clip-path:url(#SVGID_00000183216152814450847110000008510067009196667797_);fill:#38F6CD;" points="63,159.8 
				132.6,232.8 130.3,235 63,164.4 			"/>
			<polygon style="clip-path:url(#SVGID_00000183216152814450847110000008510067009196667797_);fill:#37F6CC;" points="63,155.3 
				63,155.3 134.9,230.6 132.6,232.8 63,159.8 			"/>
			
				<rect x="98.5" y="139.8" transform="matrix(0.7236 -0.6902 0.6902 0.7236 -104.7495 122.1128)" style="clip-path:url(#SVGID_00000183216152814450847110000008510067009196667797_);fill:#37F7CB;" width="3.2" height="104.2"/>
			
				<rect x="100.8" y="137.6" transform="matrix(0.7236 -0.6902 0.6902 0.7236 -102.6086 123.09)" style="clip-path:url(#SVGID_00000183216152814450847110000008510067009196667797_);fill:#36F7CA;" width="3.2" height="104.2"/>
			
				<rect x="103.1" y="135.4" transform="matrix(0.7236 -0.6902 0.6902 0.7236 -100.4676 124.0673)" style="clip-path:url(#SVGID_00000183216152814450847110000008510067009196667797_);fill:#35F7C9;" width="3.2" height="104.2"/>
			
				<rect x="105.4" y="133.2" transform="matrix(0.7236 -0.6902 0.6902 0.7236 -98.3266 125.0445)" style="clip-path:url(#SVGID_00000183216152814450847110000008510067009196667797_);fill:#34F7C8;" width="3.2" height="104.2"/>
			
				<rect x="107.7" y="131" transform="matrix(0.7236 -0.6902 0.6902 0.7236 -96.1856 126.0217)" style="clip-path:url(#SVGID_00000183216152814450847110000008510067009196667797_);fill:#33F7C7;" width="3.2" height="104.2"/>
			
				<rect x="110" y="128.8" transform="matrix(0.7236 -0.6902 0.6902 0.7236 -94.0446 126.9989)" style="clip-path:url(#SVGID_00000183216152814450847110000008510067009196667797_);fill:#33F7C6;" width="3.2" height="104.2"/>
			
				<rect x="112.3" y="126.7" transform="matrix(0.7236 -0.6902 0.6902 0.7236 -91.9037 127.9762)" style="clip-path:url(#SVGID_00000183216152814450847110000008510067009196667797_);fill:#32F7C5;" width="3.2" height="104.2"/>
			
				<rect x="114.6" y="124.5" transform="matrix(0.7236 -0.6902 0.6902 0.7236 -89.7627 128.9534)" style="clip-path:url(#SVGID_00000183216152814450847110000008510067009196667797_);fill:#31F7C4;" width="3.2" height="104.2"/>
			
				<rect x="116.8" y="122.3" transform="matrix(0.7236 -0.6902 0.6902 0.7236 -87.6217 129.9306)" style="clip-path:url(#SVGID_00000183216152814450847110000008510067009196667797_);fill:#30F8C2;" width="3.2" height="104.2"/>
			
				<rect x="119.1" y="120.1" transform="matrix(0.7236 -0.6902 0.6902 0.7236 -85.4807 130.9079)" style="clip-path:url(#SVGID_00000183216152814450847110000008510067009196667797_);fill:#2FF8C1;" width="3.2" height="104.2"/>
			
				<rect x="121.4" y="117.9" transform="matrix(0.7236 -0.6902 0.6902 0.7236 -83.3397 131.8851)" style="clip-path:url(#SVGID_00000183216152814450847110000008510067009196667797_);fill:#2EF8C0;" width="3.2" height="104.2"/>
			
				<rect x="123.7" y="115.7" transform="matrix(0.7236 -0.6902 0.6902 0.7236 -81.1988 132.8623)" style="clip-path:url(#SVGID_00000183216152814450847110000008510067009196667797_);fill:#2EF8BF;" width="3.2" height="104.2"/>
			
				<rect x="126" y="113.5" transform="matrix(0.7236 -0.6902 0.6902 0.7236 -79.0578 133.8395)" style="clip-path:url(#SVGID_00000183216152814450847110000008510067009196667797_);fill:#2DF8BE;" width="3.2" height="104.2"/>
			
				<rect x="128.3" y="111.4" transform="matrix(0.7236 -0.6902 0.6902 0.7236 -76.9168 134.8168)" style="clip-path:url(#SVGID_00000183216152814450847110000008510067009196667797_);fill:#2CF8BD;" width="3.2" height="104.2"/>
			
				<rect x="130.6" y="109.2" transform="matrix(0.7236 -0.6902 0.6902 0.7236 -74.7758 135.794)" style="clip-path:url(#SVGID_00000183216152814450847110000008510067009196667797_);fill:#2BF8BC;" width="3.2" height="104.2"/>
			
				<rect x="132.9" y="107" transform="matrix(0.7236 -0.6902 0.6902 0.7236 -72.6348 136.7712)" style="clip-path:url(#SVGID_00000183216152814450847110000008510067009196667797_);fill:#2AF8BB;" width="3.2" height="104.2"/>
			
				<rect x="135.2" y="104.8" transform="matrix(0.7236 -0.6902 0.6902 0.7236 -70.4938 137.7484)" style="clip-path:url(#SVGID_00000183216152814450847110000008510067009196667797_);fill:#2AF9BA;" width="3.2" height="104.2"/>
			
				<rect x="137.5" y="102.6" transform="matrix(0.7236 -0.6902 0.6902 0.7236 -68.3529 138.7257)" style="clip-path:url(#SVGID_00000183216152814450847110000008510067009196667797_);fill:#29F9B9;" width="3.2" height="104.2"/>
			<polygon style="clip-path:url(#SVGID_00000183216152814450847110000008510067009196667797_);fill:#28F9B8;" points="104.2,115.9 
				106.5,113.7 176.8,187.4 176.8,190.7 176.1,191.3 			"/>
			<polygon style="clip-path:url(#SVGID_00000183216152814450847110000008510067009196667797_);fill:#27F9B7;" points="106.5,113.7 
				108.8,111.6 176.8,182.8 176.8,187.4 			"/>
			<polygon style="clip-path:url(#SVGID_00000183216152814450847110000008510067009196667797_);fill:#26F9B6;" points="108.8,111.6 
				111.1,109.4 176.8,178.2 176.8,182.8 			"/>
			<polygon style="clip-path:url(#SVGID_00000183216152814450847110000008510067009196667797_);fill:#25F9B5;" points="111.1,109.4 
				112.8,107.8 114,107.8 176.8,173.7 176.8,178.2 			"/>
			<polygon style="clip-path:url(#SVGID_00000183216152814450847110000008510067009196667797_);fill:#25F9B4;" points="118.4,107.8 
				176.8,169.1 176.8,173.7 114,107.8 			"/>
			<polygon style="clip-path:url(#SVGID_00000183216152814450847110000008510067009196667797_);fill:#24F9B3;" points="122.7,107.8 
				176.8,164.5 176.8,169.1 118.4,107.8 			"/>
			<polygon style="clip-path:url(#SVGID_00000183216152814450847110000008510067009196667797_);fill:#23FAB2;" points="127.1,107.8 
				176.8,159.9 176.8,164.5 122.7,107.8 			"/>
			<polygon style="clip-path:url(#SVGID_00000183216152814450847110000008510067009196667797_);fill:#22FAB1;" points="131.5,107.8 
				176.8,155.3 176.8,159.9 127.1,107.8 			"/>
			<polygon style="clip-path:url(#SVGID_00000183216152814450847110000008510067009196667797_);fill:#21FAB0;" points="135.9,107.8 
				176.8,150.7 176.8,155.3 131.5,107.8 			"/>
			<polygon style="clip-path:url(#SVGID_00000183216152814450847110000008510067009196667797_);fill:#21FAAF;" points="140.2,107.8 
				176.8,146.1 176.8,150.7 135.9,107.8 			"/>
			<polygon style="clip-path:url(#SVGID_00000183216152814450847110000008510067009196667797_);fill:#20FAAE;" points="144.6,107.8 
				176.8,141.6 176.8,146.1 140.2,107.8 			"/>
			<polygon style="clip-path:url(#SVGID_00000183216152814450847110000008510067009196667797_);fill:#1FFAAD;" points="149,107.8 
				176.8,137 176.8,141.6 144.6,107.8 			"/>
			<polygon style="clip-path:url(#SVGID_00000183216152814450847110000008510067009196667797_);fill:#1EFAAC;" points="153.4,107.8 
				176.8,132.4 176.8,137 149,107.8 			"/>
			<polygon style="clip-path:url(#SVGID_00000183216152814450847110000008510067009196667797_);fill:#1DFAAB;" points="157.7,107.8 
				176.8,127.8 176.8,132.4 153.4,107.8 			"/>
			<polygon style="clip-path:url(#SVGID_00000183216152814450847110000008510067009196667797_);fill:#1CFBAA;" points="162.1,107.8 
				176.8,123.2 176.8,127.8 157.7,107.8 			"/>
			<polygon style="clip-path:url(#SVGID_00000183216152814450847110000008510067009196667797_);fill:#1CFBA9;" points="166.5,107.8 
				176.8,118.6 176.8,123.2 162.1,107.8 			"/>
			<polygon style="clip-path:url(#SVGID_00000183216152814450847110000008510067009196667797_);fill:#1BFBA8;" points="170.9,107.8 
				176.8,114 176.8,118.6 166.5,107.8 			"/>
			<polygon style="clip-path:url(#SVGID_00000183216152814450847110000008510067009196667797_);fill:#1AFBA7;" points="175.2,107.8 
				176.8,109.4 176.8,114 170.9,107.8 			"/>
			<polygon style="clip-path:url(#SVGID_00000183216152814450847110000008510067009196667797_);fill:#1AFBA7;" points="176.8,109.4 
				175.2,107.8 176.8,107.8 			"/>
		</g>
	</g>
	<g>
		<g>
			<defs>
				<polygon id="SVGID_00000036963617812093299010000016452827724134411651_" points="162.8,234 168.6,250.6 198.8,250.6 192.9,234 
									"/>
			</defs>
			<clipPath id="SVGID_00000061470689973989738940000007419620770043630526_">
				<use xlink:href="#SVGID_00000036963617812093299010000016452827724134411651_"  style="overflow:visible;"/>
			</clipPath>
			<polygon style="clip-path:url(#SVGID_00000061470689973989738940000007419620770043630526_);fill:#35F7C9;" points="162.8,246.2 
				167.1,250.6 162.8,250.6 			"/>
			<polygon style="clip-path:url(#SVGID_00000061470689973989738940000007419620770043630526_);fill:#34F7C8;" points="162.8,241.6 
				171.4,250.6 167.1,250.6 162.8,246.2 			"/>
			<polygon style="clip-path:url(#SVGID_00000061470689973989738940000007419620770043630526_);fill:#33F7C7;" points="162.8,237 
				175.8,250.6 171.4,250.6 162.8,241.6 			"/>
			<polygon style="clip-path:url(#SVGID_00000061470689973989738940000007419620770043630526_);fill:#33F7C6;" points="164.3,234 
				180.2,250.6 175.8,250.6 162.8,237 162.8,234 			"/>
			<polygon style="clip-path:url(#SVGID_00000061470689973989738940000007419620770043630526_);fill:#32F7C5;" points="168.7,234 
				184.6,250.6 180.2,250.6 164.3,234 			"/>
			<polygon style="clip-path:url(#SVGID_00000061470689973989738940000007419620770043630526_);fill:#31F7C4;" points="173.1,234 
				188.9,250.6 184.6,250.6 168.7,234 			"/>
			<polygon style="clip-path:url(#SVGID_00000061470689973989738940000007419620770043630526_);fill:#30F8C2;" points="177.5,234 
				193.3,250.6 188.9,250.6 173.1,234 			"/>
			<polygon style="clip-path:url(#SVGID_00000061470689973989738940000007419620770043630526_);fill:#2FF8C1;" points="181.8,234 
				197.7,250.6 193.3,250.6 177.5,234 			"/>
			<polygon style="clip-path:url(#SVGID_00000061470689973989738940000007419620770043630526_);fill:#2EF8C0;" points="186.2,234 
				198.8,247.2 198.8,250.6 197.7,250.6 181.8,234 			"/>
			<polygon style="clip-path:url(#SVGID_00000061470689973989738940000007419620770043630526_);fill:#2EF8BF;" points="190.6,234 
				198.8,242.6 198.8,247.2 186.2,234 			"/>
			<polygon style="clip-path:url(#SVGID_00000061470689973989738940000007419620770043630526_);fill:#2DF8BE;" points="195,234 
				198.8,238 198.8,242.6 190.6,234 			"/>
			<polygon style="clip-path:url(#SVGID_00000061470689973989738940000007419620770043630526_);fill:#2CF8BD;" points="198.8,238 
				195,234 198.8,234 			"/>
		</g>
	</g>
</g>
<g>
	<path class="st71" d="M251.2,115.5c-6.2-10.8-15-19.2-26.4-25c-11.4-5.9-24.5-8.8-39.5-8.8h-44.6l6.8,24.1h36.8
		c15,0,26.6,4.2,34.7,12.6c8.2,8.4,12.3,20,12.3,34.8c0,14.8-4.1,26.4-12.3,34.5c-8.2,8.2-19.7,12.3-34.7,12.3h-43.7l-9.6-27.9
		l-9.6,27.9h0l-1.1,3.1l-0.8,2.2h0l-6.5,19h72.4c15,0,28.2-2.9,39.5-8.8c11.4-5.9,20.2-14.1,26.4-24.8c6.2-10.7,9.3-23.2,9.3-37.5
		C260.5,138.8,257.4,126.3,251.2,115.5z"/>
</g>
<g class="st0">
	<g>
		<rect x="41.6" y="42.1" class="st1" width="10.5" height="10.5"/>
	</g>
	<g>
		<rect x="279.1" y="42.1" class="st1" width="10.5" height="10.5"/>
	</g>
	<g>
		<rect x="160.3" y="42.1" class="st1" width="10.5" height="10.5"/>
	</g>
	<g>
		<rect x="160.3" y="279.6" class="st1" width="10.5" height="10.5"/>
	</g>
	<g>
		<rect x="41.6" y="279.6" class="st1" width="10.5" height="10.5"/>
	</g>
	<g>
		<rect x="41.6" y="166.1" class="st1" width="10.5" height="10.5"/>
	</g>
	<g>
		<rect x="279.1" y="279.6" class="st1" width="10.5" height="10.5"/>
	</g>
	<g>
		<rect x="279.1" y="160.9" class="st1" width="10.5" height="10.5"/>
	</g>
</g>
</svg>
